<svg xmlns="http://www.w3.org/2000/svg" width="300" height="129.1" viewBox="0 0 176 41" fill="none">
  <g clip-path="url(#clip0_192_3074)">
    <mask id="mask0_192_3074" style="mask-type:luminance" maskUnits="userSpaceOnUse" x="0" y="0" width="176" height="41">
      <path d="M176 0H0V41H176V0Z" fill="white"></path>
    </mask>
    <g mask="url(#mask0_192_3074)">
      <path d="M51.0599 20.5702L33.7799 5.2602C30.1599 2.0602 25.5099 0.200195 20.3399 0.200195C9.18995 0.200195 0.0699463 9.31019 0.0699463 20.4702C0.0699463 31.6302 9.17995 40.7402 20.3399 40.7402C25.5099 40.7402 30.1599 38.7702 33.7799 35.6702L51.0599 20.5702ZM6.15995 20.5702C6.15995 12.8302 12.4599 6.3902 20.3399 6.3902C28.2199 6.3902 34.5199 12.6902 34.5199 20.5702C34.5199 28.4502 28.2199 34.7502 20.3399 34.7502C12.5999 34.6402 6.15995 28.3102 6.15995 20.5702Z" fill="#E51736"></path>
      <path d="M58.3099 25.8502C58.3099 21.7002 61.7599 18.8102 71.8599 17.4002V16.4102C71.8599 13.9102 70.4899 12.6802 67.9899 12.6802C64.9599 12.6802 62.7499 14.0502 60.6699 15.7102L58.7299 13.9202C61.2299 11.5602 64.3999 9.91016 68.4099 9.91016C73.2699 9.91016 75.1999 12.4102 75.1999 16.7002V25.6702C75.1999 28.1702 75.3399 29.5402 75.7599 30.6302H72.3099C72.0299 29.7902 71.8899 28.9802 71.8899 27.8502C69.6699 29.9302 67.0299 30.8802 64.1499 30.8802C60.5299 30.9902 58.3099 29.1902 58.3099 25.8502ZM71.8599 25.4302V19.7602C64.1199 20.9902 61.6199 22.7902 61.6199 25.4302C61.6199 27.3702 62.8499 28.4602 65.0699 28.4602C67.5999 28.3502 69.9299 27.2602 71.8599 25.4302Z" fill="#7E7E7E"></path>
      <path d="M79.5 20.6098C79.5 13.2898 84.22 10.0898 88.76 10.0898C93.3 10.0898 95.41 12.7298 96.64 15.7598L93.86 16.8498C92.87 14.2098 91.22 12.8398 88.62 12.8398C85.7 12.8398 82.81 14.9198 82.81 20.5798C82.81 25.5398 85.17 28.3198 88.62 28.3198C91.26 28.3198 92.77 27.2298 94 24.3098L96.78 25.3998C95.27 28.7098 92.91 31.2098 88.47 31.2098C83.89 31.1398 79.5 27.5098 79.5 20.6198" fill="#7E7E7E"></path>
      <path d="M99.6699 20.6098C99.6699 13.2898 104.39 10.0898 108.93 10.0898C113.47 10.0898 115.58 12.7298 116.81 15.7598L114.03 16.8498C113.04 14.2098 111.39 12.8398 108.79 12.8398C105.87 12.8398 102.98 14.9198 102.98 20.5798C102.98 25.5398 105.34 28.3198 108.79 28.3198C111.43 28.3198 112.94 27.2298 114.17 24.3098L116.95 25.3998C115.44 28.7098 113.08 31.2098 108.64 31.2098C104.1 31.1398 99.6699 27.5098 99.6699 20.6198" fill="#7E7E7E"></path>
      <path d="M119.87 20.6098C119.87 13.2898 124.73 10.0898 128.98 10.0898C133.84 10.0898 137.43 13.3998 137.43 20.7498V21.4498H123.18C123.32 26.0298 125.96 28.4898 129.27 28.4898C132.19 28.4898 133.85 27.2598 135.36 25.1798L137.3 26.8298C135.36 29.4698 132.87 31.1198 128.99 31.1198C124.31 31.1198 119.88 27.6398 119.88 20.5998M134.4 18.8098C134.12 15.2198 132.46 12.7198 129.16 12.7198C126.38 12.7198 123.92 14.6598 123.35 18.8098H134.4Z" fill="#7E7E7E"></path>
      <path d="M140.35 27.6504L142.29 25.7104C143.8 27.3604 145.88 28.4904 148.66 28.4904C151.83 28.4904 153.52 27.4004 153.52 25.3204C153.52 23.2404 151.73 22.5404 148.28 21.7304C143.99 20.7404 141.1 19.5104 141.1 15.6404C141.1 12.6104 143.74 10.1104 148.14 10.1104C151.73 10.1104 153.95 11.2004 155.88 13.0304L154.23 15.2504C152.72 13.8804 150.64 12.8904 148.42 12.8904C145.5 12.8904 144.27 14.1204 144.27 15.6704C144.27 17.6104 145.92 18.3104 149.13 18.9804C153.71 20.0704 156.87 21.2004 156.87 25.3504C156.87 29.2204 153.42 31.3004 148.85 31.3004C145.08 30.9804 142.02 29.5804 140.37 27.6404" fill="#7E7E7E"></path>
      <path d="M159.56 27.6504L161.5 25.7104C163.01 27.3604 165.09 28.4904 167.87 28.4904C171.04 28.4904 172.73 27.4004 172.73 25.3204C172.73 23.2404 170.94 22.5404 167.49 21.7304C163.2 20.7404 160.31 19.5104 160.31 15.6404C160.31 12.6104 162.95 10.1104 167.35 10.1104C170.94 10.1104 173.16 11.2004 175.09 13.0304L173.44 15.2504C171.93 13.8804 169.85 12.8904 167.63 12.8904C164.71 12.8904 163.48 14.1204 163.48 15.6704C163.48 17.6104 165.13 18.3104 168.34 18.9804C172.92 20.0704 176.08 21.2004 176.08 25.3504C176.08 29.2204 172.63 31.3004 168.06 31.3004C164.29 30.9804 161.23 29.5804 159.58 27.6404" fill="#7E7E7E"></path>
    </g>
  </g>
  <defs>
    <clipPath id="clip0_192_3074">
      <rect width="176" height="41" fill="white"></rect>
    </clipPath>
  </defs>
</svg>
